<svg xmlns="http://www.w3.org/2000/svg"  viewBox="0 0 32 32" width="64px" height="64px" baseProfile="basic"><linearGradient id="izls86P84xd0ucGSjKv4ya" x1="6.262" x2="24.712" y1="12.197" y2="30.648" gradientUnits="userSpaceOnUse"><stop offset="0" stop-color="#2680ff" stop-opacity=".95"/><stop offset="1" stop-color="#2680ff" stop-opacity=".5"/></linearGradient><path fill="url(#izls86P84xd0ucGSjKv4ya)" d="M29,24.5c0,2.48-2.02,4.5-4.5,4.5h-17C5.02,29,3,26.98,3,24.5c0-0.69,0.17-1.33,0.44-1.91	l3.91-10.94C7.91,10.07,9.43,9,11.11,9h2.71c-0.25,0.47-0.39,1-0.39,1.57c0,1.89,1.53,3.43,3.43,3.43h8.63l3.07,8.59	C28.83,23.17,29,23.81,29,24.5z"/><linearGradient id="izls86P84xd0ucGSjKv4yb" x1="16.482" x2="27.03" y1="4.649" y2="15.198" gradientUnits="userSpaceOnUse"><stop offset="0" stop-color="#00e9ff" stop-opacity=".95"/><stop offset="1" stop-color="#00e9ff" stop-opacity=".5"/></linearGradient><path fill="url(#izls86P84xd0ucGSjKv4yb)" d="M26.571,6c-0.219,0-0.433,0.022-0.643,0.056C25.546,3.756,23.552,2,21.143,2	c-2.683,0-4.857,2.175-4.857,4.857c0,0.113,0.009,0.224,0.017,0.335c-1.629,0.266-2.874,1.675-2.874,3.38	c0,1.894,1.535,3.429,3.429,3.429h9.714c2.209,0,4-1.791,4-4C30.571,7.791,28.781,6,26.571,6z"/><linearGradient id="izls86P84xd0ucGSjKv4yc" x1="16.482" x2="27.03" y1="4.649" y2="15.198" gradientUnits="userSpaceOnUse"><stop offset="0" stop-color="#fff" stop-opacity=".8"/><stop offset=".519" stop-color="#fff" stop-opacity=".5"/><stop offset="1" stop-color="#fff" stop-opacity=".6"/></linearGradient><path fill="url(#izls86P84xd0ucGSjKv4yc)" d="M26.571,6c-0.219,0-0.433,0.022-0.643,0.056C25.546,3.756,23.552,2,21.143,2	c-2.683,0-4.857,2.175-4.857,4.857c0,0.113,0.009,0.224,0.017,0.335c-1.629,0.266-2.874,1.675-2.874,3.38	c0,1.894,1.535,3.429,3.429,3.429h9.714c2.209,0,4-1.791,4-4C30.571,7.791,28.781,6,26.571,6z"/><linearGradient id="izls86P84xd0ucGSjKv4yd" x1="8.569" x2="23.43" y1="17.07" y2="31.93" gradientUnits="userSpaceOnUse"><stop offset="0" stop-color="#fff" stop-opacity=".8"/><stop offset=".519" stop-color="#fff" stop-opacity=".5"/><stop offset="1" stop-color="#fff" stop-opacity=".6"/></linearGradient><path fill="url(#izls86P84xd0ucGSjKv4yd)" d="M29,24.5c0,2.481-2.019,4.5-4.5,4.5h-17C5.019,29,3,26.981,3,24.5S5.019,20,7.5,20h17	C26.981,20,29,22.019,29,24.5z M24.5,23c-0.828,0-1.5,0.672-1.5,1.5s0.672,1.5,1.5,1.5s1.5-0.672,1.5-1.5S25.328,23,24.5,23z"/><linearGradient id="izls86P84xd0ucGSjKv4ye" x1="14.39" x2="14.438" y1="8.195" y2="8.242" gradientUnits="userSpaceOnUse"><stop offset="0" stop-color="#fff" stop-opacity=".8"/><stop offset=".519" stop-color="#fff" stop-opacity=".5"/><stop offset="1" stop-color="#fff" stop-opacity=".6"/></linearGradient><path fill="url(#izls86P84xd0ucGSjKv4ye)" d="M14.84,7.81c-0.32,0.23-0.6,0.52-0.82,0.85C14.23,8.33,14.52,8.04,14.84,7.81z"/><linearGradient id="izls86P84xd0ucGSjKv4yf" x1="15.422" x2="15.627" y1="7.338" y2="7.543" gradientUnits="userSpaceOnUse"><stop offset="0" stop-color="#fff" stop-opacity=".8"/><stop offset=".519" stop-color="#fff" stop-opacity=".5"/><stop offset="1" stop-color="#fff" stop-opacity=".6"/></linearGradient><path fill="url(#izls86P84xd0ucGSjKv4yf)" d="M15.17,7.59c0.22-0.12,0.46-0.23,0.71-0.3C15.63,7.36,15.39,7.46,15.17,7.59z"/><linearGradient id="izls86P84xd0ucGSjKv4yg" x1="8.946" x2="27.397" y1="9.513" y2="27.964" gradientUnits="userSpaceOnUse"><stop offset="0" stop-color="#fff" stop-opacity=".6"/><stop offset=".493" stop-color="#fff" stop-opacity="0"/><stop offset=".997" stop-color="#fff" stop-opacity=".3"/></linearGradient><path fill="url(#izls86P84xd0ucGSjKv4yg)" d="M21.143,2.5c2.137,0,3.942,1.53,4.292,3.638l0.082,0.491l0.491-0.079	C26.216,6.516,26.4,6.5,26.571,6.5c1.93,0,3.5,1.57,3.5,3.5s-1.57,3.5-3.5,3.5H25.49h-0.71l0.239,0.668l3.087,8.634	c0.261,0.552,0.394,1.123,0.394,1.698c0,2.206-1.794,4-4,4h-17c-2.206,0-4-1.794-4-4c0-0.574,0.133-1.145,0.413-1.743l3.905-10.934	C8.314,10.434,9.639,9.5,11.114,9.5h2.709h0.303l0.14-0.269c0.428-0.822,1.219-1.399,2.117-1.546l0.449-0.073l-0.031-0.454	l-0.004-0.054c-0.006-0.082-0.012-0.163-0.012-0.246C16.786,4.455,18.74,2.5,21.143,2.5 M21.143,2c-2.683,0-4.857,2.175-4.857,4.857	c0,0.113,0.009,0.224,0.017,0.335c-1.085,0.177-1.99,0.867-2.48,1.808h-2.709c-1.687,0-3.2,1.067-3.767,2.655L3.442,22.589	C3.166,23.171,3,23.814,3,24.5C3,26.981,5.019,29,7.5,29h17c2.481,0,4.5-2.019,4.5-4.5c0-0.686-0.166-1.329-0.442-1.911L25.49,14	h1.081c2.209,0,4-1.791,4-4c0-2.209-1.791-4-4-4c-0.219,0-0.433,0.022-0.643,0.056C25.546,3.756,23.552,2,21.143,2L21.143,2z"/></svg>